<?xml version="1.0" standalone="no"?>
<!DOCTYPE svg PUBLIC "-//W3C//DTD SVG 20010904//EN"
 "http://www.w3.org/TR/2001/REC-SVG-20010904/DTD/svg10.dtd">
<svg version="1.0" xmlns="http://www.w3.org/2000/svg"
 width="256.000000pt" height="256.000000pt" viewBox="0 0 256.000000 256.000000"
 preserveAspectRatio="xMidYMid meet">

<g transform="translate(0.000000,256.000000) scale(0.100000,-0.100000)"
fill="#000000" stroke="none">
<path d="M1020 2540 c-385 -82 -705 -335 -881 -695 -89 -183 -129 -356 -129
-560 0 -200 39 -374 125 -553 71 -148 140 -247 250 -357 383 -385 959 -483
1450 -246 585 282 862 948 655 1573 -100 301 -335 576 -616 720 -111 57 -238
102 -344 122 -118 23 -397 21 -510 -4z m222 -555 c13 -19 30 -35 38 -35 8 0
25 16 38 35 13 21 30 35 42 35 25 0 81 -28 137 -69 l43 -31 -22 -44 c-26 -55
-15 -76 41 -76 54 0 61 -12 61 -110 0 -98 -7 -110 -61 -110 -21 0 -42 -7 -50
-16 -11 -14 -10 -22 9 -56 l22 -40 -29 -27 c-41 -38 -128 -83 -153 -79 -13 2
-32 17 -43 35 -25 41 -45 41 -70 0 -11 -17 -29 -33 -39 -35 -21 -4 -96 27 -96
40 0 4 -6 8 -14 8 -8 0 -28 13 -45 29 l-31 29 22 40 c19 34 20 42 9 56 -8 9
-29 16 -50 16 -54 0 -61 12 -61 110 0 98 7 110 61 110 21 0 42 7 50 16 11 14
10 22 -9 57 -27 48 -24 53 67 107 82 50 104 51 133 5z m-382 -295 l0 -50 -45
0 -45 0 0 -40 c0 -35 4 -41 33 -54 75 -32 125 -121 113 -204 -11 -81 -57 -132
-106 -117 -33 10 -35 47 -5 90 19 30 24 46 20 69 -15 72 -105 100 -164 50 -37
-31 -42 -78 -11 -117 24 -30 27 -82 4 -91 -33 -13 -54 -5 -80 30 -33 42 -43
125 -24 184 12 36 74 98 113 113 14 5 17 19 17 81 0 94 13 106 112 106 l68 0
0 -50z m998 34 c19 -13 22 -24 22 -90 0 -62 3 -76 18 -81 38 -15 100 -77 112
-113 37 -112 -27 -243 -104 -214 -23 9 -20 61 4 91 67 86 -57 191 -142 120
-40 -33 -44 -75 -13 -122 30 -43 28 -80 -5 -90 -49 -15 -95 36 -106 117 -12
83 38 172 114 204 28 13 32 19 32 54 l0 40 -45 0 -45 0 0 50 0 50 68 0 c45 0
75 -5 90 -16z m-870 -616 c8 -8 12 -53 12 -135 l0 -123 -155 0 -155 0 0 123
c0 82 4 127 12 135 17 17 269 17 286 0z m440 -125 l3 -133 -151 0 -150 0 0
128 c0 71 3 132 7 136 4 3 70 5 147 4 l141 -3 3 -132z m432 118 c5 -11 10 -72
10 -135 l0 -116 -155 0 -155 0 0 123 c0 82 4 127 12 135 8 8 55 12 145 12 121
0 133 -2 143 -19z m-1120 -356 c11 -10 25 -36 30 -57 9 -32 7 -46 -9 -83 -22
-50 -48 -65 -112 -65 -102 0 -146 138 -67 205 28 24 39 27 85 23 32 -3 61 -12
73 -23z m360 -17 c-25 -55 -25 -85 0 -142 l19 -46 -145 0 -145 0 8 23 c4 12 8
54 8 92 0 39 -4 80 -8 93 l-8 22 145 0 145 0 -19 -42z m248 26 c28 -19 52 -65
52 -100 0 -31 -34 -90 -60 -104 -24 -13 -96 -13 -120 0 -26 14 -60 73 -60 104
0 35 24 81 52 100 29 21 107 21 136 0z m376 -11 c-7 -16 -14 -55 -14 -88 0
-33 7 -72 14 -87 l15 -28 -149 0 -149 0 19 46 c25 57 25 87 0 142 l-19 42 149
0 149 0 -15 -27z m255 1 c78 -66 33 -204 -68 -204 -64 0 -90 15 -112 65 -16
37 -18 51 -9 83 16 60 45 80 117 81 31 1 49 -6 72 -25z"/>
<path d="M1206 1759 c-35 -42 -35 -96 0 -138 22 -27 32 -31 74 -31 42 0 52 4
74 31 18 21 26 42 26 69 0 27 -8 48 -26 69 -22 27 -32 31 -74 31 -42 0 -52 -4
-74 -31z"/>
</g>
</svg>
