<?xml version="1.0" standalone="no"?>
<!DOCTYPE svg PUBLIC "-//W3C//DTD SVG 20010904//EN"
 "http://www.w3.org/TR/2001/REC-SVG-20010904/DTD/svg10.dtd">
<svg version="1.0" xmlns="http://www.w3.org/2000/svg"
 width="128.000000pt" height="128.000000pt" viewBox="0 0 128.000000 128.000000"
 preserveAspectRatio="xMidYMid meet">

<g transform="translate(0.000000,128.000000) scale(0.100000,-0.100000)"
fill="#000000" stroke="none">
<path d="M492 1242 c-60 -35 -63 -39 -57 -67 15 -73 13 -80 -25 -83 -53 -5
-60 -16 -60 -97 0 -81 7 -92 60 -97 38 -3 40 -11 25 -83 -6 -28 -3 -32 59 -67
36 -21 70 -38 75 -38 6 0 20 14 33 30 12 17 29 30 38 30 9 0 26 -13 38 -30 13
-16 28 -30 34 -30 6 0 40 17 75 38 61 35 64 39 58 67 -15 72 -13 80 25 83 53
5 60 16 60 97 0 81 -7 92 -60 97 -38 3 -40 11 -25 83 6 28 3 32 -58 68 -35 20
-69 37 -75 37 -6 0 -21 -13 -34 -30 -12 -16 -29 -30 -38 -30 -9 0 -26 14 -38
30 -13 17 -28 30 -35 30 -7 -1 -40 -18 -75 -38z m216 -188 c49 -56 6 -154 -68
-154 -44 0 -90 47 -90 92 0 88 100 127 158 62z"/>
<path d="M130 1004 c-6 -14 -10 -49 -10 -78 0 -50 -2 -54 -31 -66 -92 -38
-117 -181 -44 -250 42 -40 82 -1 51 50 -24 41 -21 92 7 118 33 31 90 30 122
-3 30 -29 32 -67 5 -110 -22 -36 -18 -61 11 -70 59 -19 104 118 64 194 -17 34
-70 81 -91 81 -10 0 -14 13 -14 45 l0 45 40 0 c39 0 40 1 40 35 l0 35 -70 0
c-66 0 -71 -1 -80 -26z"/>
<path d="M1000 995 c0 -34 1 -35 40 -35 l40 0 0 -44 c0 -37 -3 -45 -23 -50
-12 -3 -38 -21 -57 -40 -29 -31 -34 -44 -38 -94 -6 -84 32 -152 77 -137 29 9
33 34 11 70 -27 43 -25 81 5 110 33 34 93 34 123 2 26 -28 29 -78 6 -117 -18
-30 -14 -57 11 -66 34 -14 85 64 85 128 0 47 -39 110 -83 133 -35 19 -37 22
-37 72 0 28 -4 63 -10 77 -9 25 -14 26 -80 26 l-70 0 0 -35z"/>
<path d="M140 480 c-6 -11 -10 -60 -8 -113 l3 -92 130 0 130 0 3 92 c4 134 5
133 -133 133 -104 0 -115 -2 -125 -20z"/>
<path d="M522 488 c-8 -8 -12 -48 -12 -115 l0 -103 130 0 130 0 0 103 c0 67
-4 107 -12 115 -16 16 -220 16 -236 0z"/>
<path d="M890 480 c-6 -11 -10 -60 -8 -113 l3 -92 130 0 130 0 3 92 c4 134 5
133 -133 133 -104 0 -115 -2 -125 -20z"/>
<path d="M38 171 c-27 -24 -33 -36 -33 -71 0 -35 6 -47 33 -71 36 -32 69 -36
112 -14 35 18 50 43 50 85 0 42 -15 67 -50 85 -43 22 -76 18 -112 -14z"/>
<path d="M254 188 c30 -75 30 -101 0 -175 -4 -10 23 -13 116 -13 113 0 122 1
114 18 -11 22 -11 142 0 165 8 16 -1 17 -114 17 -93 0 -120 -3 -116 -12z"/>
<path d="M591 186 c-87 -48 -50 -186 49 -186 51 0 100 49 100 99 0 75 -83 124
-149 87z"/>
<path d="M796 183 c11 -23 11 -143 0 -165 -8 -17 1 -18 114 -18 93 0 120 3
116 13 -2 6 -10 29 -17 50 -12 35 -8 64 17 125 4 9 -23 12 -116 12 -113 0
-122 -1 -114 -17z"/>
<path d="M1128 184 c-34 -18 -48 -43 -48 -84 0 -42 15 -67 50 -85 43 -22 76
-18 112 14 27 24 33 36 33 71 0 35 -6 47 -33 71 -36 32 -72 36 -114 13z"/>
</g>
</svg>
